<svg width="24" height="24" viewBox="0 0 24 24" fill="none" xmlns="http://www.w3.org/2000/svg">
<path d="M13.6198 8.38192L15.5858 6.41492C15.3532 6.18239 15.1815 5.89609 15.086 5.58138C14.9905 5.26667 14.974 4.93325 15.0381 4.61067C15.1022 4.28809 15.2449 3.98629 15.4535 3.73201C15.6621 3.47774 15.9302 3.27882 16.234 3.1529C16.5378 3.02697 16.868 2.97791 17.1953 3.01007C17.5226 3.04223 17.837 3.15462 18.1105 3.33727C18.384 3.51992 18.6082 3.76721 18.7634 4.05722C18.9185 4.34723 18.9997 4.67103 18.9998 4.99992C19.3287 4.99968 19.6527 5.0806 19.9429 5.2355C20.2331 5.3904 20.4807 5.61451 20.6636 5.88795C20.8465 6.16139 20.9591 6.47573 20.9915 6.80311C21.0239 7.13048 20.975 7.46079 20.8492 7.76476C20.7234 8.06873 20.5245 8.33697 20.2702 8.54572C20.016 8.75446 19.7142 8.89726 19.3915 8.96146C19.0689 9.02566 18.7353 9.00928 18.4205 8.91377C18.1057 8.81826 17.8194 8.64657 17.5868 8.41392L15.7668 10.2349M7.49977 15.9999L8.49977 16.9999M5.90377 18.5959C8.63677 21.3299 11.8038 22.5959 12.9738 21.4249C14.1458 20.2529 12.8798 17.0869 10.1458 14.3539C7.41277 11.6199 4.24577 10.3539 3.07577 11.5249C1.90377 12.6969 3.16977 15.8629 5.90377 18.5959Z" stroke="#D27C2C" stroke-width="2" stroke-linecap="round" stroke-linejoin="round"/>
<path d="M12.9752 21.425C16.8802 17.519 17.8302 12.137 15.0962 9.40397C12.3632 6.66997 6.98117 7.61997 3.07617 11.525" stroke="#D27C2C" stroke-width="2" stroke-linecap="round" stroke-linejoin="round"/>
</svg>
